<mxfile host="app.diagrams.net" agent="Mozilla/5.0 (Windows NT 10.0; Win64; x64) AppleWebKit/537.36 (KHTML, like Gecko) Chrome/129.0.0.0 Safari/537.36" version="26.2.14">
  <diagram name="PÃ¡gina-1" id="eIY0wsHk8ArjlP2ZmJj7">
    <mxGraphModel grid="1" page="1" gridSize="10" guides="1" tooltips="1" connect="1" arrows="1" fold="1" pageScale="1" pageWidth="1169" pageHeight="827" math="0" shadow="0">
      <root>
        <mxCell id="0" />
        <mxCell id="1" parent="0" />
        <mxCell id="T9B8OvvK50HG8CmNTZUv-1" value="&lt;p style=&quot;margin:0px;margin-top:4px;text-align:center;&quot;&gt;&lt;b&gt;EnemyState (enum)&lt;/b&gt;&lt;/p&gt;&lt;hr size=&quot;1&quot; style=&quot;border-style:solid;&quot;&gt;&lt;p style=&quot;margin:0px;margin-left:4px;&quot;&gt;-&amp;gt; ACTIVE&lt;/p&gt;&lt;p style=&quot;margin:0px;margin-left:4px;&quot;&gt;-&amp;gt; INACTIVE&lt;/p&gt;" style="verticalAlign=top;align=left;overflow=fill;html=1;whiteSpace=wrap;" vertex="1" parent="1">
          <mxGeometry x="50" y="80" width="190" height="70" as="geometry" />
        </mxCell>
        <mxCell id="T9B8OvvK50HG8CmNTZUv-2" style="edgeStyle=orthogonalEdgeStyle;rounded=0;orthogonalLoop=1;jettySize=auto;html=1;exitX=0.5;exitY=1;exitDx=0;exitDy=0;entryX=0.5;entryY=0;entryDx=0;entryDy=0;" edge="1" parent="1" source="T9B8OvvK50HG8CmNTZUv-6" target="T9B8OvvK50HG8CmNTZUv-7">
          <mxGeometry relative="1" as="geometry">
            <mxPoint x="230" y="410" as="targetPoint" />
          </mxGeometry>
        </mxCell>
        <mxCell id="T9B8OvvK50HG8CmNTZUv-3" style="edgeStyle=orthogonalEdgeStyle;rounded=0;orthogonalLoop=1;jettySize=auto;html=1;exitX=0.5;exitY=1;exitDx=0;exitDy=0;entryX=0.5;entryY=0;entryDx=0;entryDy=0;" edge="1" parent="1" source="T9B8OvvK50HG8CmNTZUv-6" target="T9B8OvvK50HG8CmNTZUv-8">
          <mxGeometry relative="1" as="geometry" />
        </mxCell>
        <mxCell id="T9B8OvvK50HG8CmNTZUv-4" style="edgeStyle=orthogonalEdgeStyle;rounded=0;orthogonalLoop=1;jettySize=auto;html=1;exitX=0.5;exitY=1;exitDx=0;exitDy=0;entryX=0.5;entryY=0;entryDx=0;entryDy=0;" edge="1" parent="1" source="T9B8OvvK50HG8CmNTZUv-6" target="T9B8OvvK50HG8CmNTZUv-9">
          <mxGeometry relative="1" as="geometry">
            <mxPoint x="600" y="390" as="targetPoint" />
          </mxGeometry>
        </mxCell>
        <mxCell id="T9B8OvvK50HG8CmNTZUv-5" style="edgeStyle=orthogonalEdgeStyle;rounded=0;orthogonalLoop=1;jettySize=auto;html=1;exitX=0.5;exitY=1;exitDx=0;exitDy=0;entryX=0.5;entryY=0;entryDx=0;entryDy=0;" edge="1" parent="1" source="T9B8OvvK50HG8CmNTZUv-6" target="T9B8OvvK50HG8CmNTZUv-10">
          <mxGeometry relative="1" as="geometry">
            <mxPoint x="810" y="390" as="targetPoint" />
          </mxGeometry>
        </mxCell>
        <mxCell id="T9B8OvvK50HG8CmNTZUv-6" value="&lt;p style=&quot;margin:0px;margin-top:4px;text-align:center;&quot;&gt;&lt;b&gt;Enemy&lt;/b&gt;&lt;/p&gt;&lt;hr size=&quot;1&quot; style=&quot;border-style:solid;&quot;&gt;&lt;p style=&quot;margin:0px;margin-left:4px;&quot;&gt;- speed : float&lt;/p&gt;&lt;p style=&quot;margin:0px;margin-left:4px;&quot;&gt;- jumpSpeed : float&lt;br&gt;# EnemyState : enum&lt;/p&gt;&lt;p style=&quot;margin:0px;margin-left:4px;&quot;&gt;- alive : boolean&lt;/p&gt;&lt;p style=&quot;margin:0px;margin-left:4px;&quot;&gt;- stairs : boolean&lt;/p&gt;&lt;hr size=&quot;1&quot; style=&quot;border-style:solid;&quot;&gt;&lt;p style=&quot;margin:0px;margin-left:4px;&quot;&gt;+ method1(Type): Type&lt;br&gt;+ method2(Type, Type): Type&lt;/p&gt;" style="verticalAlign=top;align=left;overflow=fill;html=1;whiteSpace=wrap;" vertex="1" parent="1">
          <mxGeometry x="260" y="170" width="190" height="150" as="geometry" />
        </mxCell>
        <mxCell id="T9B8OvvK50HG8CmNTZUv-7" value="&lt;p style=&quot;margin:0px;margin-top:4px;text-align:center;&quot;&gt;&lt;b&gt;Fire&lt;/b&gt;&lt;/p&gt;&lt;hr size=&quot;1&quot; style=&quot;border-style:solid;&quot;&gt;&lt;p style=&quot;margin:0px;margin-left:4px;&quot;&gt;-&amp;nbsp;&lt;/p&gt;&lt;hr size=&quot;1&quot; style=&quot;border-style:solid;&quot;&gt;&lt;p style=&quot;margin:0px;margin-left:4px;&quot;&gt;+ method1(Type): Type&lt;br&gt;+ method2(Type, Type): Type&lt;/p&gt;" style="verticalAlign=top;align=left;overflow=fill;html=1;whiteSpace=wrap;" vertex="1" parent="1">
          <mxGeometry x="60" y="389" width="190" height="140" as="geometry" />
        </mxCell>
        <mxCell id="T9B8OvvK50HG8CmNTZUv-8" value="&lt;p style=&quot;margin:0px;margin-top:4px;text-align:center;&quot;&gt;&lt;b&gt;Flame&lt;/b&gt;&lt;/p&gt;&lt;hr size=&quot;1&quot; style=&quot;border-style:solid;&quot;&gt;&lt;p style=&quot;margin:0px;margin-left:4px;&quot;&gt;- pos : Vector2&lt;br&gt;- EnemyState : enum&lt;/p&gt;&lt;p style=&quot;margin:0px;margin-left:4px;&quot;&gt;- alive : boolean&lt;/p&gt;&lt;hr size=&quot;1&quot; style=&quot;border-style:solid;&quot;&gt;&lt;p style=&quot;margin:0px;margin-left:4px;&quot;&gt;+ method1(Type): Type&lt;br&gt;+ method2(Type, Type): Type&lt;/p&gt;" style="verticalAlign=top;align=left;overflow=fill;html=1;whiteSpace=wrap;" vertex="1" parent="1">
          <mxGeometry x="260" y="389" width="190" height="140" as="geometry" />
        </mxCell>
        <mxCell id="T9B8OvvK50HG8CmNTZUv-9" value="&lt;p style=&quot;margin:0px;margin-top:4px;text-align:center;&quot;&gt;&lt;b&gt;Barrel&lt;/b&gt;&lt;/p&gt;&lt;hr size=&quot;1&quot; style=&quot;border-style:solid;&quot;&gt;&lt;p style=&quot;margin:0px;margin-left:4px;&quot;&gt;- pos : Vector2&lt;br&gt;- EnemyState : enum&lt;/p&gt;&lt;p style=&quot;margin:0px;margin-left:4px;&quot;&gt;- alive : boolean&lt;/p&gt;&lt;hr size=&quot;1&quot; style=&quot;border-style:solid;&quot;&gt;&lt;p style=&quot;margin:0px;margin-left:4px;&quot;&gt;+ method1(Type): Type&lt;br&gt;+ method2(Type, Type): Type&lt;/p&gt;" style="verticalAlign=top;align=left;overflow=fill;html=1;whiteSpace=wrap;" vertex="1" parent="1">
          <mxGeometry x="460" y="389" width="190" height="140" as="geometry" />
        </mxCell>
        <mxCell id="T9B8OvvK50HG8CmNTZUv-10" value="&lt;p style=&quot;margin:0px;margin-top:4px;text-align:center;&quot;&gt;&lt;b&gt;BlueBarrel&lt;/b&gt;&lt;/p&gt;&lt;hr size=&quot;1&quot; style=&quot;border-style:solid;&quot;&gt;&lt;p style=&quot;margin:0px;margin-left:4px;&quot;&gt;- pos : Vector2&lt;br&gt;- EnemyState : enum&lt;/p&gt;&lt;p style=&quot;margin:0px;margin-left:4px;&quot;&gt;- alive : boolean&lt;/p&gt;&lt;hr size=&quot;1&quot; style=&quot;border-style:solid;&quot;&gt;&lt;p style=&quot;margin:0px;margin-left:4px;&quot;&gt;+ method1(Type): Type&lt;br&gt;+ method2(Type, Type): Type&lt;/p&gt;" style="verticalAlign=top;align=left;overflow=fill;html=1;whiteSpace=wrap;" vertex="1" parent="1">
          <mxGeometry x="660" y="389" width="190" height="140" as="geometry" />
        </mxCell>
      </root>
    </mxGraphModel>
  </diagram>
</mxfile>
